<svg xmlns="http://www.w3.org/2000/svg" viewBox="0 0 420 340">
  <defs>
    <filter id="glow" x="-35%" y="-35%" width="170%" height="170%"><feGaussianBlur stdDeviation="5"/></filter>
    <linearGradient id="wall" x1="0" x2="0" y1="0" y2="1"><stop stop-color="#ffe8b6"/><stop offset="1" stop-color="#eeb76f"/></linearGradient>
    <linearGradient id="roof" x1="0" x2="0" y1="0" y2="1"><stop stop-color="#c96d58"/><stop offset="1" stop-color="#8b4436"/></linearGradient>
  </defs>
  <ellipse cx="210" cy="318" rx="154" ry="20" fill="#06141d" opacity=".28"/>
  <path d="M91 151 Q107 104 147 82 Q207 48 269 81 Q307 104 323 151 L323 282 Q321 313 292 316 L126 316 Q96 314 94 282 Z" fill="url(#wall)" stroke="#d39458" stroke-width="5"/>
  <path d="M63 160 Q111 83 170 54 Q210 35 250 54 Q309 83 357 160 Q210 133 63 160Z" fill="url(#roof)" stroke="#7a3d31" stroke-width="5"/>
  <path d="M83 156 Q210 116 337 156" fill="none" stroke="#e48e6e" stroke-width="9" opacity=".75"/>
  <path d="M177 136 Q210 91 243 136 Z" fill="#f6d8a1" stroke="#7a3d31" stroke-width="5" opacity=".95"/>
  <rect x="280" y="48" width="38" height="94" rx="6" fill="#895532" stroke="#654026" stroke-width="4"/>
  <rect x="272" y="36" width="54" height="18" rx="5" fill="#c9b9a3"/>
  <g opacity=".45"><circle cx="300" cy="14" r="17" fill="#aeb8c3"/><circle cx="323" cy="-7" r="14" fill="#aeb8c3"/><circle cx="346" cy="-23" r="11" fill="#aeb8c3"/></g>
  <g filter="url(#glow)" opacity=".34"><rect x="112" y="176" width="62" height="58" rx="20" fill="#ffe98d"/><rect x="247" y="176" width="62" height="58" rx="20" fill="#ffe98d"/><rect x="181" y="100" width="58" height="58" rx="22" fill="#ffe98d"/></g>
  <g>
    <rect x="118" y="181" width="50" height="50" rx="16" fill="#ffe9a4" stroke="#9fb6aa" stroke-width="5"/>
    <rect x="253" y="181" width="50" height="50" rx="16" fill="#ffe9a4" stroke="#9fb6aa" stroke-width="5"/>
    <rect x="186" y="105" width="48" height="48" rx="18" fill="#ffe9a4" stroke="#9fb6aa" stroke-width="5"/>
    <path d="M143 181V231M118 206H168M278 181V231M253 206H303M210 105V153M186 129H234" stroke="#b5c9bc" stroke-width="4" opacity=".9"/>
  </g>
  <path d="M184 316V251 Q189 224 214 224 Q239 224 244 251 V316 Z" fill="#7a5134" stroke="#684429" stroke-width="4"/>
  <circle cx="230" cy="270" r="4" fill="#ffe39e"/>
  <path d="M91 235 Q127 205 161 226M260 227 Q298 204 332 232" fill="none" stroke="#64834d" stroke-width="9" opacity=".75"/>
  <g opacity=".9"><circle cx="90" cy="235" r="8" fill="#dd8ba5"/><circle cx="110" cy="224" r="7" fill="#f0d6ed"/><circle cx="130" cy="220" r="7" fill="#ffc78f"/><circle cx="303" cy="225" r="8" fill="#efbfdc"/><circle cx="323" cy="237" r="8" fill="#e996a5"/></g>
</svg>